<svg width="22" height="22" viewBox="0 0 22 22" fill="none" xmlns="http://www.w3.org/2000/svg">
<path fill-rule="evenodd" clip-rule="evenodd" d="M12.7927 12.2634C11.3608 13.6953 9.03915 13.6953 7.60723 12.2634C6.1753 10.8315 6.1753 8.50987 7.60723 7.07795C9.03915 5.64603 11.3608 5.64603 12.7927 7.07795C14.2246 8.50987 14.2246 10.8315 12.7927 12.2634ZM13.2331 13.6464C11.2728 15.1458 8.45724 14.999 6.66442 13.2062C4.7118 11.2536 4.7118 8.08776 6.66442 6.13514C8.61704 4.18252 11.7829 4.18252 13.7355 6.13514C15.5282 7.92789 15.675 10.7433 14.1758 12.7035L17.7425 16.2702L16.7997 17.213L13.2331 13.6464Z" fill="#959595"/>
</svg>
